<svg xmlns="http://www.w3.org/2000/svg" width="202.879" height="40" viewBox="0 0 202.879 40"><g transform="translate(-0.042 0.02)"><path d="M29.91,39.9h0a6.148,6.148,0,0,1-7.022-5L18.161,7.084a6.148,6.148,0,0,1,5-7.022h0a6.148,6.148,0,0,1,7.022,5l4.727,27.82A6.148,6.148,0,0,1,29.91,39.9Z" transform="translate(-5.858 0)" fill="#cc4c6e"/><path d="M55,39.9h0a6.148,6.148,0,0,1-7.022-5L43.252,7.084A6.05,6.05,0,0,1,48.181.061h0a6.148,6.148,0,0,1,7.022,5l4.727,27.82A6.05,6.05,0,0,1,55,39.9Z" transform="translate(-14.001 0)" fill="#cc4c6e"/><path d="M3.66,39.447h0A6.12,6.12,0,0,1,.554,31.412L12.775,3.66A6.12,6.12,0,0,1,20.811.554h0a6.12,6.12,0,0,1,3.106,8.035L11.627,36.341A6.009,6.009,0,0,1,3.66,39.447Z" transform="translate(0 -0.02)" fill="#f3b541"/><path d="M28.66,39.447h0a6.12,6.12,0,0,1-3.106-8.035L37.775,3.66A6.12,6.12,0,0,1,45.811.554h0a6.12,6.12,0,0,1,3.106,8.035L36.695,36.341A6.106,6.106,0,0,1,28.66,39.447Z" transform="translate(-8.119 -0.02)" fill="#4cb3aa"/><path d="M53.66,39.447h0a6.12,6.12,0,0,1-3.106-8.035L62.843,3.66A6.12,6.12,0,0,1,70.878.554h0a6.12,6.12,0,0,1,3.106,8.035L61.695,36.341A6.063,6.063,0,0,1,53.66,39.447Z" transform="translate(-16.238 -0.02)" fill="#842c68"/><g transform="translate(67.131 11.81)"><path d="M100.75,18.305a.389.389,0,0,1,.405-.405h.27c.27,0,.405.068.473.338l5,10.736c.405.878.878,1.958.878,1.958h.068s.473-1.148.878-1.958l5-10.736a.508.508,0,0,1,.473-.338h.27a.358.358,0,0,1,.405.405l1.35,16.746c0,.27-.135.473-.405.473h-.2a.358.358,0,0,1-.405-.405l-1.08-13.032c-.068-.878-.068-2.363-.068-2.363h-.068s-.473,1.486-.878,2.363l-4.524,9.723a.508.508,0,0,1-.473.338h-.405c-.27,0-.405-.068-.473-.338l-4.524-9.723c-.405-.81-.945-2.363-.945-2.363H101.7s0,1.553-.068,2.363l-1.148,13.1a.389.389,0,0,1-.405.405h-.27c-.27,0-.405-.135-.405-.473Z" transform="translate(-99.4 -17.63)" fill="#fff"/><path d="M134.455,18.338a.432.432,0,0,1,.473-.338h.473a.432.432,0,0,1,.473.338l6.28,16.746c.068.27,0,.473-.338.473h-.27a.432.432,0,0,1-.473-.338l-2.228-5.739h-7.428l-2.161,5.739a.432.432,0,0,1-.473.338h-.27c-.338,0-.473-.2-.338-.473Zm4.051,10.128-2.7-7.157c-.27-.743-.675-2.093-.675-2.093h-.068s-.405,1.35-.675,2.093l-2.7,7.157Z" transform="translate(-108.728 -17.662)" fill="#fff"/><path d="M154.626,27.926l-5.672-9.453c-.2-.27-.068-.473.27-.473h.27a.452.452,0,0,1,.473.27l3.984,6.685c.473.878,1.08,1.958,1.08,1.958h.068a18.3,18.3,0,0,1,1.08-1.958l3.984-6.685a.51.51,0,0,1,.473-.27h.27c.338,0,.473.2.27.473L155.5,27.926v7.225a.358.358,0,0,1-.405.405h-.068a.358.358,0,0,1-.405-.405Z" transform="translate(-115.463 -17.662)" fill="#fff"/><path d="M172.2,18.405a.358.358,0,0,1,.405-.405h.27a.614.614,0,0,1,.54.27l9.858,13.572c.608.81,1.418,2.228,1.418,2.228h.068s-.135-1.35-.135-2.228V18.405a.358.358,0,0,1,.405-.405h.2a.358.358,0,0,1,.405.405V35.151a.358.358,0,0,1-.405.405h-.27a.614.614,0,0,1-.54-.27l-9.858-13.572c-.608-.81-1.418-2.228-1.418-2.228h-.068s.135,1.35.135,2.228v13.37a.358.358,0,0,1-.405.405h-.2a.358.358,0,0,1-.405-.405Z" transform="translate(-123.043 -17.662)" fill="#fff"/><path d="M207.013,17.5a8.794,8.794,0,0,1,8.913,8.981,8.919,8.919,0,1,1-17.826,0A8.794,8.794,0,0,1,207.013,17.5Zm0,17.218c4.457,0,7.765-3.579,7.765-8.238a7.768,7.768,0,1,0-15.53,0C199.248,31.14,202.557,34.718,207.013,34.718Z" transform="translate(-131.455 -17.5)" fill="#fff"/><path d="M237.513,17.5a8.794,8.794,0,0,1,8.913,8.981,8.919,8.919,0,1,1-17.826,0A8.794,8.794,0,0,1,237.513,17.5Zm0,17.218c4.457,0,7.765-3.579,7.765-8.238a7.768,7.768,0,1,0-15.53,0C229.748,31.14,233.057,34.718,237.513,34.718Z" transform="translate(-141.36 -17.5)" fill="#fff"/><path d="M262.25,18.945h-6.145a.358.358,0,0,1-.405-.405v-.135a.358.358,0,0,1,.405-.405h13.37a.358.358,0,0,1,.405.405v.135a.358.358,0,0,1-.405.405H263.33V35.151a.358.358,0,0,1-.405.405h-.27a.358.358,0,0,1-.405-.405Z" transform="translate(-150.161 -17.662)" fill="#fff"/><path d="M280.8,18.405a.358.358,0,0,1,.405-.405h.2a.358.358,0,0,1,.405.405v7.833h11.276V18.405a.358.358,0,0,1,.405-.405h.2a.358.358,0,0,1,.405.405V35.151a.358.358,0,0,1-.405.405h-.2a.358.358,0,0,1-.405-.405v-7.9H281.88v7.9a.358.358,0,0,1-.405.405h-.2a.358.358,0,0,1-.405-.405V18.405Z" transform="translate(-158.313 -17.662)" fill="#fff"/></g></g></svg>